# xmcd
#
# Track frame offsets:
#	150
#	16781
#	43915
#	58593
#	76059
#	100755
#	113184
#	130557
#	151659
#	165408
#	185417
#
# Disc length: 2775 seconds
#
# Revision: 0
# Processed by: cddbd v1.5.2PL0 Copyright (c) Steve Scherf et al.
# Submitted via: EasyCDDAExtractor 2010.4.0.0
#
DISCID=750ad50b
DTITLE=The Bowling Familt - Feels Like Sunday
DYEAR=2011
DGENRE=CCM
TTITLE0=I Thank You Lord
TTITLE1=Mercy And Grace
TTITLE2=The Winds Of The World
TTITLE3=Church Medley
TTITLE4=Jesus Messiah
TTITLE5=Unclouded Day
TTITLE6=Thou Art Worthy
TTITLE7=Blood Medley
TTITLE8=I'm On The Battlefield
TTITLE9=We've Gone This Far By Faith
TTITLE10=Farther Along
EXTD=
EXTT0=
EXTT1=
EXTT2=
EXTT3=
EXTT4=
EXTT5=
EXTT6=
EXTT7=
EXTT8=
EXTT9=
EXTT10=
PLAYORDER=
